<?xml version="1.0" encoding="UTF-8" standalone="no"?>
<!-- Created with Inkscape (http://www.inkscape.org/) -->

<svg
   xmlns:dc="http://purl.org/dc/elements/1.1/"
   xmlns:cc="http://creativecommons.org/ns#"
   xmlns:rdf="http://www.w3.org/1999/02/22-rdf-syntax-ns#"
   xmlns:svg="http://www.w3.org/2000/svg"
   xmlns="http://www.w3.org/2000/svg"
   xmlns:xlink="http://www.w3.org/1999/xlink"
   xmlns:sodipodi="http://sodipodi.sourceforge.net/DTD/sodipodi-0.dtd"
   xmlns:inkscape="http://www.inkscape.org/namespaces/inkscape"
   sodipodi:docname="another rocket.svg"
   inkscape:version="0.92.3 (2405546, 2018-03-11)"
   id="svg8"
   version="1.1"
   viewBox="0 0 156.87166 149.06783"
   height="149.06783mm"
   width="156.87166mm">
  <sodipodi:namedview
     inkscape:window-maximized="1"
     inkscape:window-y="9"
     inkscape:window-x="-4"
     inkscape:window-height="1017"
     inkscape:window-width="1920"
     inkscape:snap-global="false"
     inkscape:guide-bbox="true"
     showguides="false"
     showgrid="false"
     inkscape:current-layer="layer1"
     inkscape:document-units="mm"
     inkscape:cy="281.70298"
     inkscape:cx="296.45038"
     inkscape:zoom="1.5086813"
     inkscape:pageshadow="2"
     inkscape:pageopacity="0.0"
     borderopacity="1.0"
     bordercolor="#666666"
     pagecolor="#ffffff"
     id="base"
     fit-margin-top="0"
     fit-margin-left="0"
     fit-margin-right="0"
     fit-margin-bottom="0"
     showborder="false" />
  <defs
     id="defs2">
    <linearGradient
       inkscape:collect="always"
       id="linearGradient2502">
      <stop
         style="stop-color:#ffffff;stop-opacity:1;"
         offset="0"
         id="stop2498" />
      <stop
         style="stop-color:#ffffff;stop-opacity:1"
         offset="1"
         id="stop2500" />
    </linearGradient>
    <linearGradient
       inkscape:collect="always"
       xlink:href="#linearGradient2502"
       id="linearGradient2504"
       x1="63.37307"
       y1="173.89107"
       x2="96.597038"
       y2="151.83386"
       gradientUnits="userSpaceOnUse"
       gradientTransform="matrix(-0.66909067,1.1707888,-1.1707888,-0.66909067,278.93832,203.18631)" />
    <filter
       inkscape:collect="always"
       style="color-interpolation-filters:sRGB"
       id="filter2819"
       x="-0.047698554"
       width="1.0953971"
       y="-0.048305281"
       height="1.0966105">
      <feGaussianBlur
         inkscape:collect="always"
         stdDeviation="2.0125259"
         id="feGaussianBlur2821" />
    </filter>
    <filter
       inkscape:collect="always"
       style="color-interpolation-filters:sRGB"
       id="filter2909"
       x="-0.059999999"
       width="1.12"
       y="-0.059999999"
       height="1.12">
      <feGaussianBlur
         inkscape:collect="always"
         stdDeviation="3.1284492"
         id="feGaussianBlur2911" />
    </filter>
  </defs>
  <metadata
     id="metadata5">
    <rdf:RDF>
      <cc:Work
         rdf:about="">
        <dc:format>image/svg+xml</dc:format>
        <dc:type
           rdf:resource="http://purl.org/dc/dcmitype/StillImage" />
        <dc:title></dc:title>
      </cc:Work>
    </rdf:RDF>
  </metadata>
  <g
     id="layer1"
     inkscape:groupmode="layer"
     inkscape:label="Ebene 1"
     transform="translate(2.2653226,-92.972838)">
    <g
       id="g2574"
       transform="translate(235.77986,-3.7092117)">
      <path
         inkscape:connector-curvature="0"
         id="path2530"
         d="m 124.57888,168.96025 c 0,0 -0.42239,4.21876 0.21909,4.83399 -0.64717,-0.74648 -0.0413,5.73196 0.4067,5.90291 0.0775,0.86774 -0.12345,4.76725 0.51715,5.67334 -0.46988,-0.49503 -0.20288,5.73541 0.0885,6.5162 -0.17076,-0.14737 0.1994,4.65939 0.74919,4.24445 -0.29881,-0.96475 1.27624,6.87295 0.63777,6.87008 0.59581,-0.36034 -0.0523,-0.63527 0.25409,-1.3313 -0.36082,0.42638 -1.07277,-2.14578 -0.62802,-1.66125 -0.14439,-0.73838 1.06417,-0.92175 0.44314,-1.61667 0.17338,-0.92969 0.0922,-1.33645 0.74782,-1.58189 0.5048,0.50695 0.0199,-2.29186 0.6094,-1.88111 -0.10334,0.25019 -0.2029,-2.17715 -0.51876,-2.07797 -0.59377,0.98295 0.54287,3.50332 0.77945,3.88916 -0.008,0.0262 0.15783,4.48664 -0.21192,4.27068 -0.44783,-0.0357 0.17503,2.59662 0.76002,3.38358 0.2447,0.83256 0.36926,1.49644 0.1639,1.56045 -0.53987,0.83638 -0.13582,4.19203 -0.16479,4.13175 -0.49035,-0.4697 0.33856,2.83421 0.21041,2.48257 -0.36832,0.70379 0.81988,-1.10353 0.96071,-0.2023 0.10138,-0.39257 -0.21918,-4.4684 0.32345,-3.77504 0.10215,-0.40209 -0.29215,-1.2316 -0.28569,-0.50304 -0.2348,-0.88335 0.54878,-2.49556 0.11744,-2.5627 -0.0417,-0.64468 -0.48141,-1.73549 -0.32502,-1.13803 0.13098,-0.75708 0.21597,-2.18187 0.25542,-2.35588 -0.0274,0.18196 1.36016,4.44842 0.9223,4.2819 -0.31357,-0.40895 -0.0761,6.37231 -0.33239,6.06756 0.36218,-0.39907 0.86725,5.67346 1.19786,6.44448 -0.39805,-0.91548 -0.77987,5.48557 -0.25058,5.78789 -0.0447,-0.70915 1.87717,4.88297 1.32647,4.89894 0.62427,-0.56674 0.20935,5.75092 -0.19442,4.98026 0.47991,-0.63233 0.0786,-2.66065 0.34569,-3.57759 0.22727,0.40411 0.24854,-3.90483 0.60813,-4.56838 0.30996,0.0562 -0.77032,-2.63986 -0.30741,-3.4553 -0.61796,-0.27789 -0.22513,-4.47245 0.31903,-4.04341 0.11749,0.87493 -0.23007,-4.2105 -0.30907,-3.88154 -0.13911,-0.79975 1.35423,-3.72416 1.24476,-3.95006 0.43984,0.8972 0.6832,2.76492 0.20106,2.43004 0.0269,-0.43221 0.35444,0.13358 -0.27219,1.08666 0.30435,0.59572 -0.0834,2.63712 -0.22024,2.2004 0.38882,0.22388 1.14538,3.01872 1.17597,2.26046 -0.38351,-0.49817 -1.49718,0.91105 -0.85166,1.52322 0.5791,0.87664 1.13287,2.18348 1.09426,2.8686 0.57661,-0.3312 -0.0673,-4.14171 -0.35451,-4.37947 0.42758,-0.98759 0.49824,-3.37788 0.0339,-2.90093 -0.25758,-0.96067 0.0951,-3.1675 0.68481,-3.71908 0.3683,-0.45996 0.49527,-2.70187 0.077,-1.90858 -0.5119,-0.54532 0.13671,-3.29053 -0.16024,-3.42322 0.24353,-0.61934 0.92036,-3.37482 0.97485,-4.18698 -0.62263,-0.48323 -0.1219,1.939 -0.28319,1.48043 -0.31592,-0.2765 0.003,2.60638 0.0217,2.4252 -0.43276,-0.45276 1.08398,3.2179 0.88547,3.46381 -0.29897,0.32335 0.12408,0.82322 -0.0751,1.36912 -0.19893,-0.0298 0.44316,1.88729 0.18536,1.42219 -0.12548,0.97225 -0.33406,2.49092 0.18095,2.04404 -0.14189,0.18852 0.38829,-2.18965 0.27437,-2.69414 0.41437,0.57688 0.89831,-5.06717 1.11596,-5.24614 0.0561,-0.98378 0.83504,-3.18618 0.1798,-3.48581 -0.12289,0.689 0.97051,-3.94666 0.50209,-3.86654 0.12747,0.38757 -0.736,-4.94683 -0.62,-5.39422 -0.61195,0.50498 0.45925,-4.11969 0.86422,-3.18865 -0.64346,0.47789 0.56397,1.92929 0.89351,1.29311 -0.64927,-0.38831 -0.91589,0.7426 -0.92034,1.41263 0.2975,0.19806 0.80725,0.63635 0.58707,1.02451 0.3804,-0.80884 0.8403,1.5214 0.46163,1.42044 -0.37199,0.20056 0.11172,0.068 0.4008,0.83742 0.55379,-0.43092 0.30159,2.52541 -0.31494,2.43719 -0.27021,-0.24654 -0.0468,-6.99455 0.11095,-6.04938 -0.47682,-0.51531 0.95394,-4.69458 1.5509,-3.88895 -0.25832,-0.88024 0.48614,-5.07189 -0.0339,-4.44421 0.2682,0.95726 0.92091,-4.95752 0.34903,-5.31848 -0.51873,-0.64498 -0.62109,-5.12147 -0.13707,-4.77107 0.26005,0.95044 0.30692,-6.13221 0.30692,-6.13221 0,-10.67677 -19.54902,-11.046 -19.54902,-0.0581 z"
         style="opacity:0.8;fill:#ff0000;fill-opacity:1;stroke:none;stroke-width:1.29631221;stroke-linecap:round;stroke-linejoin:round;stroke-miterlimit:4;stroke-dasharray:none;stroke-opacity:1;paint-order:normal"
         sodipodi:nodetypes="cccccccccccccccccccccccccccccccccccccccccccccccccccccccccccccccccccccccccc" />
      <path
         sodipodi:nodetypes="cccccccccccccccccccccccccccccccccccccccccccccccccccccccccccccccccccccccccc"
         style="opacity:0.8;fill:#ffff00;fill-opacity:1;stroke:none;stroke-width:0.94814503;stroke-linecap:round;stroke-linejoin:round;stroke-miterlimit:4;stroke-dasharray:none;stroke-opacity:1;paint-order:normal"
         d="m 141.2034,166.81105 c -0.29439,0.16624 -0.16858,3.79224 -0.14982,4.53113 0.95098,-0.73796 0.0563,3.07585 -0.12762,3.14618 0.001,0.45165 0.93825,3.31324 0.11042,4.22913 0.15349,-1.03792 0.24078,4.44834 -0.0285,5.52523 0.44719,-0.4759 -0.59943,4.12352 -0.43109,3.43893 0.28901,-0.37897 -2.06295,4.75348 -1.15987,4.64615 -0.0593,0.24922 0.53184,0.12511 0.0244,-0.78805 -0.11688,0.95399 0.98366,-1.55902 0.55556,-1.5213 0.27053,-0.37178 -1.24416,-1.10032 -0.80159,-1.32927 -0.61954,0.11451 0.19397,-1.08194 -0.49961,-1.08309 -0.26756,0.88635 0.18852,-0.4132 -0.30129,-0.4329 0.43559,-0.18108 1.24157,-2.84738 1.01159,-3.05858 0.60943,1.48383 -1.15421,4.04823 -0.82305,4.15898 -0.58411,0.005 0.79792,3.16428 0.56405,2.97309 0.41268,0.21836 -0.54395,2.29961 -1.23934,2.09462 -0.0682,0.4741 0.0802,2.16079 0.26433,1.64418 -0.10933,1.21318 -1.12408,3.01335 -0.5523,2.93331 0.10688,0.39724 0.16267,0.72732 0.69253,0.59896 -0.0843,0.7017 -1.91184,0.37692 -1.47256,0.68931 -0.50202,-0.10467 0.30537,-3.22725 -0.18412,-2.75673 0.37221,-0.20411 0.10054,-0.53852 0.0286,-0.35057 -0.0442,-0.0857 -0.48948,-1.31532 0.08,-2.12045 -0.32678,-0.80255 0.85589,-0.13924 1.03601,-0.42084 -0.0896,-0.22747 -0.20569,-0.86392 -0.17094,-1.20879 0.0659,0.64507 -1.08004,3.666 -0.72275,2.81028 -0.22137,-0.66279 -0.43036,4.02415 -0.43067,4.23939 -0.68849,-0.93324 0.1185,4.22557 -0.62089,4.36005 0.79852,-1.27243 0.92164,3.93932 -0.0611,4.38062 0.20663,-0.36197 -1.26023,3.74639 -0.46861,4.05345 -0.59099,-0.0373 -0.28283,3.85247 0.0662,3.94358 -0.93984,-1.15162 0.38003,-3.36285 -0.33912,-3.43558 -0.66875,-0.45986 -0.36106,-3.18101 -0.73001,-3.02322 -0.43979,0.3562 0.28099,-2.35119 0.36128,-2.88377 0.66627,-0.47457 0.0598,-1.92131 0.20979,-2.20878 -0.0594,0.76108 -0.10155,-3.62845 -0.48862,-3.87171 0.25372,-0.1289 -0.79796,-2.34476 -0.48275,-2.54852 -0.17411,1.22162 -0.83026,1.05222 0.004,1.28789 -0.54114,0.29953 -0.72132,1.24266 -0.64859,1.36567 -0.17416,0.74428 0.68283,1.77432 0.64977,0.94444 0.30971,0.0999 -0.76343,2.68848 -1.19326,2.68226 0.15567,0.34876 2.0448,0.8818 1.1751,0.79757 -0.96159,1.1554 -0.97954,1.05065 -0.61533,2.3508 0.12577,0.39582 -0.0651,-3.57014 0.13345,-3.68073 -0.88441,-0.30378 -0.57142,-1.79539 -0.11662,-1.76186 0.21253,-1.40628 -0.1463,-3.2681 -0.19345,-3.04182 -0.46473,0.21931 -0.3257,-1.4906 0.0442,-0.53748 0.56936,0.0462 -0.48945,-2.84033 -0.71359,-3.63429 -0.0946,-1.14184 0.32711,-0.91908 0.18541,-1.95338 0.25039,-1.00751 -1.05676,0.93232 -0.98104,0.53685 -0.19619,-0.41054 0.2647,1.13351 0.14842,0.8516 0.89122,-0.0447 0.11923,3.6336 -0.31597,3.40858 -0.0798,0.78545 0.56205,-0.0409 0.31655,0.78051 0.60647,0.1614 -0.39379,0.9837 -0.58119,1.08791 0.64804,1.40535 -0.17239,1.80598 -0.0117,1.93328 0.11796,0.9272 1.00452,-2.20473 0.5329,-2.96255 -0.23276,-0.18888 -1.80802,-2.09702 -1.5537,-2.65563 0.42523,-1.0879 0.002,-3.63018 0.40282,-3.61321 0.28762,-0.29211 -0.58218,-2.81162 -0.39164,-2.83218 0.19199,0.28014 0.47549,-3.65952 0.64937,-3.81136 0.40581,-0.42595 -1.31022,-2.97862 -1.01388,-1.84884 0.58174,0.1692 -0.62482,1.04599 -0.83624,0.71281 0.26659,-0.32551 0.65833,1.38198 0.49213,1.54933 0.28558,-0.004 0.21483,0.68505 0.13799,0.87995 0.29488,-0.86387 -1.16708,-0.32845 -0.93858,-0.0309 -0.24917,0.0501 0.47999,0.41893 -0.14499,1.74868 -0.507,0.28335 0.47312,2.00522 0.54374,1.85316 0.30878,-0.52988 -0.31224,-6.46269 -0.87807,-5.65328 0.9309,-0.3955 -0.0173,-2.12959 -0.50474,-1.63446 0.0753,0.0286 -1.16435,-3.56408 -0.50306,-3.88733 0.33567,0.31788 -0.22585,-3.17727 0.59301,-3.26483 -0.17408,-0.79036 -0.009,-4.00526 -0.005,-3.39819 -0.52031,0.43449 -1.19111,-5.12705 -0.92099,-4.94988 0.2725,-7.85068 14.48474,-8.63115 14.62837,-0.57708 -0.21173,-0.45026 -0.33288,-0.30356 0.24405,0.0682"
         id="path2532"
         inkscape:connector-curvature="0" />
      <path
         sodipodi:nodetypes="cczcc"
         inkscape:connector-curvature="0"
         id="path2534"
         d="m 134.32761,151.79901 c 0,0 8.81384,6.0872 8.81384,13.15751 0,0 -6.57448,-0.52917 -8.81383,-0.52917 -2.23935,0 -8.81383,0.52917 -8.81383,0.52917 0,-7.07031 8.81382,-13.15751 8.81382,-13.15751 z"
         style="opacity:1;fill:#4d4d4d;fill-opacity:1;stroke:none;stroke-width:1.40839219;stroke-linecap:round;stroke-linejoin:round;stroke-miterlimit:4;stroke-dasharray:none;stroke-opacity:1;paint-order:normal" />
      <path
         sodipodi:nodetypes="cssccsssc"
         inkscape:connector-curvature="0"
         id="path2536"
         d="m 133.40891,152.28786 c -1.47022,1.26607 -4.15882,4.14941 -6.01328,7.48852 -0.36848,0.66348 -0.48857,1.40942 -0.83723,2.03834 -0.46883,0.84569 -0.37437,1.89083 -0.37437,2.87703 0,0 1.94479,-0.1655 4.00906,-0.31264 0.0355,-0.74104 -0.0156,-1.496 0.19785,-2.18142 0.19216,-0.6171 0.028,-1.19929 0.29903,-1.80983 0.27389,-0.61705 0.54731,-1.2201 0.72395,-1.83362 0.84724,-2.94263 1.31148,-4.93464 1.99499,-6.26638 z"
         style="opacity:0.25;fill:#000000;fill-opacity:1;stroke:none;stroke-width:1.3537991;stroke-linecap:round;stroke-linejoin:round;stroke-miterlimit:4;stroke-dasharray:none;stroke-opacity:1;paint-order:normal" />
      <path
         sodipodi:nodetypes="cssccssc"
         inkscape:connector-curvature="0"
         id="path2538"
         d="m 135.25944,152.25478 c 0.68606,1.43697 2.10056,3.57049 2.29345,6.2978 0.042,0.59386 0.40318,1.23173 0.41483,1.84345 0.0234,1.23039 0.40071,2.48239 0.46517,3.79549 1.25139,0.12097 2.30322,0.23565 2.30322,0.23565 0,-1.08819 0.0542,-2.22784 -0.40811,-3.17523 -0.39824,-0.81613 -0.6757,-1.68933 -0.86871,-2.54141 -0.69308,-3.05974 -3.09393,-5.21319 -4.19985,-6.45575 z"
         style="opacity:0.75;fill:#ffffff;fill-opacity:1;stroke:none;stroke-width:1.20092595;stroke-linecap:round;stroke-linejoin:round;stroke-miterlimit:4;stroke-dasharray:none;stroke-opacity:1;paint-order:normal" />
      <path
         style="opacity:1;fill:#0055d4;fill-opacity:1;stroke:none;stroke-width:0.82926571;stroke-linecap:round;stroke-linejoin:round;stroke-miterlimit:4;stroke-dasharray:none;stroke-opacity:1;paint-order:normal"
         d="m 118.61385,116.81281 c 3.41865,-11.05786 12.93906,-18.398901 15.71375,-18.398901 2.77472,0 12.29513,7.341041 15.71378,18.398901 3.41865,11.05787 -5.14004,44.14149 -5.14004,44.14149 0,0 -5.88741,-2.59706 -10.57374,-2.59706 -4.6863,0 -10.57371,2.59706 -10.57371,2.59706 0,0 -8.55869,-33.08362 -5.14004,-44.14149 z"
         id="path2540"
         inkscape:connector-curvature="0"
         sodipodi:nodetypes="zzzczcz" />
      <path
         sodipodi:nodetypes="zzzczcz"
         inkscape:connector-curvature="0"
         id="path2542"
         d="m 118.35861,115.22533 c 3.47418,-11.05786 13.14923,-18.398919 15.96899,-18.398919 2.81979,0 12.49484,7.341059 15.96902,18.398919 3.47418,11.05787 -5.22353,44.14149 -5.22353,44.14149 0,0 -5.98304,-2.0679 -10.74549,-2.0679 -4.76242,0 -10.74546,2.0679 -10.74546,2.0679 0,0 -8.69771,-33.08362 -5.22353,-44.14149 z"
         style="opacity:0.25;fill:#000000;fill-opacity:1;stroke:none;stroke-width:0.83597356;stroke-linecap:round;stroke-linejoin:round;stroke-miterlimit:4;stroke-dasharray:none;stroke-opacity:1;paint-order:normal" />
      <path
         sodipodi:nodetypes="zzzczcz"
         inkscape:connector-curvature="0"
         id="path2544"
         d="m 114.98939,115.22533 c 4.20718,-11.05786 15.92352,-18.398919 19.33821,-18.398919 3.41471,0 15.13106,7.341059 19.33824,18.398919 4.20717,11.05787 -6.32562,44.14149 -6.32562,44.14149 0,0 -7.24537,-2.59706 -13.01262,-2.59706 -5.76722,0 -13.01259,2.59706 -13.01259,2.59706 0,0 -10.53279,-33.08362 -6.32562,-44.14149 z"
         style="opacity:1;fill:#9d93ac;fill-opacity:1;stroke:none;stroke-width:0.91994494;stroke-linecap:round;stroke-linejoin:round;stroke-miterlimit:4;stroke-dasharray:none;stroke-opacity:1;paint-order:normal" />
      <path
         id="path2546"
         transform="scale(0.26458333)"
         d="m 507.69531,365.95898 c -6.00077,0 -18.78721,6.00326 -32.34765,16.62305 h 64.69336 c -13.56047,-10.61979 -26.3449,-16.62305 -32.34571,-16.62305 z"
         style="opacity:1;fill:#005544;fill-opacity:1;stroke:none;stroke-width:3.47695732;stroke-linecap:round;stroke-linejoin:round;stroke-miterlimit:4;stroke-dasharray:none;stroke-opacity:1;paint-order:normal"
         inkscape:connector-curvature="0" />
      <path
         sodipodi:nodetypes="ssssssccsccs"
         inkscape:connector-curvature="0"
         id="path2548"
         transform="scale(0.26458333)"
         d="m 507.69531,365.95898 c 6.51279,0 25.65425,18.50842 38.20299,47.52835 3.37351,7.8015 4.96452,12.7611 5.54115,20.07908 0.655,8.3126 2.32373,23.20717 -1.21975,36.78837 -3.79245,14.53545 -2.46767,23.18493 -3.87375,30.23883 -4.71965,23.6771 1.21574,49.3985 -4.52001,66.82702 -4.73999,14.4028 -2.72608,21.68291 -3.44511,25.37039 4.5539,1.65468 7.50391,2.9746 7.50391,2.9746 0,0 18.24982,-77.42713 20.49046,-114.66234 1.15423,-19.18112 1.46155,-36.3892 -1.92601,-47.53687 C 552.1017,392.93388 517.717,365.95898 507.69528,365.95898 Z"
         style="opacity:0.75;fill:#ffffff;fill-opacity:1;stroke:none;stroke-width:3.02104139;stroke-linecap:round;stroke-linejoin:round;stroke-miterlimit:4;stroke-dasharray:none;stroke-opacity:1;paint-order:normal" />
      <path
         sodipodi:nodetypes="cccsssccssssc"
         inkscape:connector-curvature="0"
         id="path2550"
         transform="scale(0.26458333)"
         d="m 507.69531,365.95898 c -2.25753,1.21719 1.94797,0.81192 0,0 z m 0,0 c -8.44094,0 -31.24785,13.59732 -49.26694,36.09264 -7.72058,9.6385 -14.5622,20.91052 -19.01821,33.44643 -5.70876,16.06019 -3.73177,44.4132 0.86707,73.23983 7.36876,46.18909 21.46886,91.59415 21.46886,91.59415 0,0 7.60611,-2.90954 17.80274,-5.56055 -1.42005,-8.50414 1.19116,-24.24323 -3.00399,-44.77431 -2.9451,-14.41332 -0.34522,-26.6037 -4.84557,-42.19516 -7.93818,-27.50184 -9.31791,-57.99349 -2.42388,-72.30396 5.19864,-10.79122 8.13993,-21.54892 10.3736,-31.54734 5.66323,-25.34992 22.91074,-37.99173 28.04632,-37.99173 z"
         style="opacity:0.25;fill:#000000;fill-opacity:1;stroke:none;stroke-width:3.36074281;stroke-linecap:round;stroke-linejoin:round;stroke-miterlimit:4;stroke-dasharray:none;stroke-opacity:1;paint-order:normal" />
      <circle
         transform="scale(-1,1)"
         style="opacity:1;fill:#333333;fill-opacity:1;stroke:none;stroke-width:1.32291663;stroke-linecap:round;stroke-linejoin:round;stroke-miterlimit:4;stroke-dasharray:none;stroke-opacity:1;paint-order:normal"
         id="circle2552"
         cx="-133.99574"
         cy="120.46836"
         r="6.9490075" />
      <circle
         transform="scale(-1,1)"
         r="6.9490075"
         cy="120.46836"
         cx="-134.26033"
         id="circle2554"
         style="opacity:1;fill:#ff5555;fill-opacity:1;stroke:none;stroke-width:1.32291663;stroke-linecap:round;stroke-linejoin:round;stroke-miterlimit:4;stroke-dasharray:none;stroke-opacity:1;paint-order:normal" />
      <circle
         transform="scale(-1,1)"
         cy="120.46836"
         cx="-134.52493"
         id="circle2556"
         style="opacity:1;fill:#000000;fill-opacity:1;stroke:none;stroke-width:1.01762819;stroke-linecap:round;stroke-linejoin:round;stroke-miterlimit:4;stroke-dasharray:none;stroke-opacity:1;paint-order:normal"
         r="5.3453903" />
      <circle
         transform="scale(-1,1)"
         r="5.3453903"
         style="opacity:1;fill:#e6e6e6;fill-opacity:1;stroke:none;stroke-width:1.01762819;stroke-linecap:round;stroke-linejoin:round;stroke-miterlimit:4;stroke-dasharray:none;stroke-opacity:1;paint-order:normal"
         id="circle2558"
         cx="-134.26033"
         cy="120.46836" />
      <path
         sodipodi:nodetypes="scscs"
         inkscape:connector-curvature="0"
         id="path2560"
         d="m 135.24883,120.46836 c -1.78176,3.74874 1.45439,3.25184 -0.9885,6.949 3.83783,0 6.94901,-3.11117 6.94901,-6.949 0,-3.83783 -3.11117,-6.94901 -6.94901,-6.94901 2.53197,4.49895 2.63598,3.48278 0.9885,6.94901 z"
         style="opacity:0.7;fill:#ffffff;fill-opacity:1;stroke:none;stroke-width:1.32291663;stroke-linecap:round;stroke-linejoin:round;stroke-miterlimit:4;stroke-dasharray:none;stroke-opacity:1;paint-order:normal" />
      <path
         inkscape:connector-curvature="0"
         id="path2562"
         d="m 146.5757,135.27907 c -0.7513,6.59533 -1.90188,13.9 -3.02307,21.1522 3.28609,1.94372 6.22767,7.83979 8.78241,11.43444 h 2.15697 c 0.1136,-4.48546 0.10969,-15.76387 -1.23196,-19.92023 -1.90683,-5.90732 -6.68435,-12.66641 -6.68435,-12.66641 z"
         style="opacity:1;fill:#ff5555;fill-opacity:1;stroke:none;stroke-width:0.7848233;stroke-linecap:round;stroke-linejoin:round;stroke-miterlimit:4;stroke-dasharray:none;stroke-opacity:1;paint-order:normal" />
      <path
         sodipodi:nodetypes="cccccc"
         inkscape:connector-curvature="0"
         id="path2564"
         d="m 148.10025,137.59263 c 1.53397,2.59426 3.06882,5.99265 4.09226,9.16327 1.41982,4.39853 0.26058,16.26953 0.14253,21.10981 l 2.15707,1e-5 c 0.1136,-4.48546 0.10969,-15.76387 -1.23197,-19.92023 -1.21676,-3.76952 -3.59254,-7.8672 -5.15989,-10.35286 z"
         style="opacity:0.25;fill:#000000;fill-opacity:1;stroke:none;stroke-width:0.7848233;stroke-linecap:round;stroke-linejoin:round;stroke-miterlimit:4;stroke-dasharray:none;stroke-opacity:1;paint-order:normal" />
      <path
         style="opacity:1;fill:#ff5555;fill-opacity:1;stroke:none;stroke-width:0.7848233;stroke-linecap:round;stroke-linejoin:round;stroke-miterlimit:4;stroke-dasharray:none;stroke-opacity:1;paint-order:normal"
         d="m 122.07953,135.27907 c 0.7513,6.59533 1.90188,13.9 3.02307,21.1522 -3.28609,1.94372 -6.22767,7.83979 -8.78241,11.43444 h -2.15697 c -0.1136,-4.48546 -0.10969,-15.76387 1.23196,-19.92023 1.90683,-5.90732 6.68435,-12.66641 6.68435,-12.66641 z"
         id="path2566"
         inkscape:connector-curvature="0" />
      <path
         sodipodi:nodetypes="cscccc"
         style="opacity:0.5;fill:#ffffff;fill-opacity:1;stroke:none;stroke-width:0.7848233;stroke-linecap:round;stroke-linejoin:round;stroke-miterlimit:4;stroke-dasharray:none;stroke-opacity:1;paint-order:normal"
         d="m 120.55498,137.59263 c -1.53397,2.59426 -3.06882,5.99265 -4.09227,9.16327 -1.41981,4.39853 -0.26058,16.26953 -0.14252,21.10981 l -2.15707,1e-5 c -0.1136,-4.48546 -0.10969,-15.76387 1.23196,-19.92023 1.21677,-3.76952 3.59255,-7.8672 5.1599,-10.35286 z"
         id="path2568"
         inkscape:connector-curvature="0" />
      <path
         inkscape:connector-curvature="0"
         id="path2570"
         d="m 122.07953,135.27907 c 0.44971,3.9478 -0.69139,5.51099 -1.08723,7.79507 -0.15105,0.8716 -0.32447,2.14089 -0.70684,3.12609 -0.39651,1.02164 -0.23297,3.06347 -0.57317,4.42242 -0.28172,1.12532 0.29355,2.07162 -0.38487,4.40435 -0.4499,1.54696 -0.9997,2.70983 -1.10311,3.36735 -0.18794,1.19496 0.10387,2.32968 -0.0242,3.4461 -0.29005,2.52927 -0.98822,4.77054 -1.87996,6.02526 h -2.15697 c -0.1136,-4.48546 -0.10969,-15.76387 1.23196,-19.92023 1.90683,-5.90732 6.68435,-12.66641 6.68435,-12.66641 z"
         style="opacity:0.1;fill:#ffffff;fill-opacity:1;stroke:none;stroke-width:0.7848233;stroke-linecap:round;stroke-linejoin:round;stroke-miterlimit:4;stroke-dasharray:none;stroke-opacity:1;paint-order:normal"
         sodipodi:nodetypes="csssssscccc" />
      <path
         style="opacity:0.1;fill:#000000;fill-opacity:1;stroke:none;stroke-width:0.7848233;stroke-linecap:round;stroke-linejoin:round;stroke-miterlimit:4;stroke-dasharray:none;stroke-opacity:1;paint-order:normal"
         d="m 146.5757,135.27907 c -0.43705,3.83666 0.63132,5.16195 0.9392,7.36289 0.089,0.63641 -0.13268,2.27362 0.26231,3.33116 0.37274,0.99796 0.59466,2.09673 1.21935,3.49785 0.58252,1.30652 0.4422,2.54582 0.85069,4.89572 0.10879,0.62585 -0.0883,1.34534 -0.0287,1.97008 0.13844,1.4526 0.98601,2.90076 0.83787,4.33766 -0.30982,3.00513 0.65836,5.75568 1.67865,7.19128 h 2.15697 c 0.1136,-4.48546 0.10969,-15.76387 -1.23196,-19.92023 -1.90683,-5.90732 -6.68435,-12.66641 -6.68435,-12.66641 z"
         id="path2572"
         inkscape:connector-curvature="0"
         sodipodi:nodetypes="csssssscccc" />
    </g>
    <g
       id="g3048">
      <g
         id="g3008">
        <circle
           transform="rotate(3.7705375)"
           r="64.322723"
           cy="159.97668"
           cx="79.188133"
           id="circle2987"
           style="opacity:1;fill:#000000;fill-opacity:1;stroke:none;stroke-width:2.16738749;stroke-linecap:round;stroke-linejoin:round;stroke-miterlimit:4;stroke-dasharray:none;stroke-opacity:1;paint-order:normal" />
        <circle
           transform="rotate(3.7705375,164.27354,611.20145)"
           r="62.568985"
           cy="174.7119"
           cx="44.363464"
           id="circle2871"
           style="opacity:0.8;fill:#000000;fill-opacity:1;stroke:none;stroke-width:2.10829425;stroke-linecap:round;stroke-linejoin:round;stroke-miterlimit:4;stroke-dasharray:none;stroke-opacity:1;paint-order:normal;filter:url(#filter2909)" />
        <circle
           style="opacity:1;fill:#d4aa00;fill-opacity:1;stroke:none;stroke-width:2.10829425;stroke-linecap:round;stroke-linejoin:round;stroke-miterlimit:4;stroke-dasharray:none;stroke-opacity:1;paint-order:normal"
           id="circle2436"
           cx="79.188133"
           cy="159.97668"
           r="62.568985"
           transform="rotate(3.7705375)" />
        <circle
           r="59.275883"
           cy="159.97668"
           cx="79.188133"
           id="circle2405"
           style="opacity:1;fill:#0000ff;fill-opacity:1;stroke:none;stroke-width:1.9973315;stroke-linecap:round;stroke-linejoin:round;stroke-miterlimit:4;stroke-dasharray:none;stroke-opacity:1;paint-order:normal"
           transform="rotate(3.7705375)" />
        <circle
           style="opacity:1;fill:#b3b3b3;fill-opacity:1;stroke:none;stroke-width:1.80954826;stroke-linecap:round;stroke-linejoin:round;stroke-miterlimit:4;stroke-dasharray:none;stroke-opacity:1;paint-order:normal"
           id="circle2425"
           cx="79.188133"
           cy="159.97668"
           r="53.702938"
           transform="rotate(3.7705375)" />
        <circle
           style="opacity:1;fill:#000080;fill-opacity:1;stroke:none;stroke-width:1.78394151;stroke-linecap:round;stroke-linejoin:round;stroke-miterlimit:4;stroke-dasharray:none;stroke-opacity:1;paint-order:normal"
           id="path2394"
           cx="79.188133"
           cy="159.97668"
           r="52.942986"
           transform="rotate(3.7705375)" />
        <path
           style="opacity:1;fill:#e4e400;fill-opacity:1;stroke:none;stroke-width:2.24063063;stroke-linecap:round;stroke-linejoin:round;stroke-miterlimit:4;stroke-dasharray:none;stroke-opacity:1;paint-order:normal"
           d="m 49.778717,124.80733 a 19.885282,19.885282 0 0 0 -19.284185,20.11835 c 16.571568,4.85573 23.532457,-14.48307 39.742289,-0.62032 a 19.885282,19.885282 0 0 0 0.0042,-0.20744 19.885282,19.885282 0 0 0 -20.462325,-19.29059 z m 9.560606,18.74752 c -10.788025,0.49652 -21.034603,7.31547 -28.470244,4.34332 a 19.885282,19.885282 0 0 0 19.101766,15.34937 19.885282,19.885282 0 0 0 19.991439,-17.60956 c -3.194436,-1.56081 -6.406033,-2.13191 -9.57739,-2.11085 -0.349051,0.002 -0.697569,0.0117 -1.045571,0.0277 z"
           id="path2868"
           inkscape:connector-curvature="0" />
        <path
           style="opacity:1;fill:#784421;fill-opacity:1;stroke:none;stroke-width:1.78394151;stroke-linecap:round;stroke-linejoin:round;stroke-miterlimit:4;stroke-dasharray:none;stroke-opacity:1;paint-order:normal"
           d="m 120.52971,174.41376 a 224.3704,224.3704 0 0 0 -95.041076,21.23665 52.942984,52.942984 0 0 0 39.526269,22.01594 52.942984,52.942984 0 0 0 55.514807,-43.25259 z"
           id="circle2629"
           inkscape:connector-curvature="0" />
        <path
           style="opacity:0.2;fill:url(#linearGradient2504);fill-opacity:1;stroke:none;stroke-width:1.57633615;stroke-linecap:round;stroke-linejoin:round;stroke-miterlimit:4;stroke-dasharray:none;stroke-opacity:1;paint-order:normal"
           d="m 21.639192,174.09301 c -6.79703,-24.92676 7.900021,-50.64398 32.826801,-57.441 24.926739,-6.79703 50.643977,7.90003 57.440967,32.82678 6.79704,24.92677 -24.646358,6.37672 -40.385609,10.6685 -15.739266,4.29177 -43.085141,38.87249 -49.882159,13.94572 z"
           id="circle2447"
           inkscape:connector-curvature="0"
           sodipodi:nodetypes="ssszs" />
        <path
           style="opacity:0.25;fill:#ffffff;fill-opacity:1;stroke:none;stroke-width:2.10829425;stroke-linecap:round;stroke-linejoin:round;stroke-miterlimit:4;stroke-dasharray:none;stroke-opacity:1;paint-order:normal"
           d="m 65.271406,155.99391 c 7.337718,33.76784 -25.029358,30.84524 -0.889457,71.2775 C 29.900853,224.99898 3.7905632,195.20438 6.0629863,160.72328 8.3354097,126.24218 38.130026,100.1319 72.611121,102.40433 c 14.032984,35.19661 -13.183377,26.6973 -7.339715,53.58958 z"
           id="circle2495"
           inkscape:connector-curvature="0"
           sodipodi:nodetypes="scscs" />
      </g>
      <g
         transform="rotate(-8.5385288,139.88134,1071.2857)"
         id="g2849">
        <path
           id="path2771"
           d="m 257.99406,131.18493 c -4.07724,0.0384 -8.50187,0.73884 -12.54962,2.5554 -5.83867,2.6203 -13.18115,12.84416 -18.6955,21.68188 -1.43652,0.50438 -2.86703,1.08301 -4.15427,1.74201 -3.88768,1.99031 -11.86534,9.96217 -14.95671,13.21419 l 1.52497,1.52548 c 3.05726,-0.517 7.05146,-1.69938 10.44071,-2.0283 0.24798,0.12672 0.53965,0.28202 0.87282,0.45992 -0.72441,1.1871 -1.16996,1.93787 -1.16996,1.93787 0,0 1.35676,0.52853 3.13108,1.4335 -1.75704,0.51939 -3.4226,1.34676 -4.71651,2.64067 0,0 0.10168,0.0869 0.11369,0.0971 -1.26781,0.30063 -2.49612,0.96288 -3.60599,2.07274 0,0 -3.28192,2.6848 -3.26336,3.57343 0.0702,-0.98546 -4.08197,4.02357 -3.88607,4.46123 -0.55878,0.66839 -3.45856,3.28383 -3.64629,4.37751 0.0178,-0.6823 -4.19888,3.91186 -4.54494,4.66999 -0.0162,-0.22049 -3.0279,3.28981 -2.50527,3.51917 -0.23706,0.29326 -1.06447,1.47472 -1.94045,2.65514 0.41176,-0.032 0.84133,0.062 0.87539,-0.54467 0.77998,-0.53479 1.0103,-0.87968 1.64745,-0.58963 -0.001,0.46442 0.68672,-0.34852 1.2051,-0.78445 -0.29449,0.60706 -0.49651,1.16666 -0.54054,1.3503 -0.0242,0.0129 -3.06057,3.28427 -3.16932,2.87011 -0.29142,-0.34191 -1.71236,1.95994 -1.85518,2.93006 -0.41568,0.76173 -0.79706,1.31899 -0.98754,1.21904 -0.97315,0.20967 -3.06019,2.86811 -3.03805,2.805 -0.0146,-0.67886 -1.76466,2.24355 -1.60663,1.90428 -0.7581,0.23722 1.35987,-0.20045 0.82218,0.5364 0.34928,-0.2059 3.00459,-3.31466 2.89801,-2.44068 0.35655,-0.21209 0.66408,-1.07733 0.15348,-0.55759 0.4586,-0.79065 2.15302,-1.37661 1.89549,-1.72909 0.288,-0.32783 0.5723,-0.89602 0.64286,-1.08676 0.63376,-0.4585 1.63208,-1.34089 1.77818,-1.43298 -0.14804,0.10928 -2.18369,4.10724 -2.37556,3.67988 0.0636,-0.48198 -4.04887,3.90573 -4.48603,4.07106 0.22516,0.28219 -3.44868,4.63675 -3.74913,5.38831 0.36587,-0.9288 -4.43051,3.32748 -4.27002,3.91552 0.45015,-0.51072 -1.91163,4.34199 -2.4629,4.4173 0.12526,0.0723 -0.0852,0.38828 -0.45062,0.79737 0.87128,-0.71061 2.63515,-2.35772 3.16311,-2.51458 0.17943,0.25892 1.32178,-2.41103 2.22571,-2.6603 -0.24046,-0.63347 3.00317,-3.3221 3.08456,-2.63395 -0.53558,0.70175 2.81493,-3.13988 2.52646,-2.96313 0.27847,-0.39573 1.46307,-0.89958 2.4226,-1.30483 -0.0715,0.16092 -0.10924,0.31054 -0.0863,0.43615 0.25671,-0.18418 0.46204,-0.26733 0.5519,-0.16536 -0.0687,-0.15585 0.04,-0.35628 0.2465,-0.57516 0.30864,-0.13738 0.51801,-0.24441 0.53847,-0.30334 -0.29506,0.86257 -1.2745,2.17546 -1.52343,1.96112 -0.14412,0.1506 -0.46254,0.36108 -1.01337,0.47491 -0.096,0.29667 -0.52062,0.70533 -0.92501,1.02009 0.12152,-0.24196 0.38887,-0.60997 0.70849,-0.99684 -0.32614,0.28314 -0.60963,0.61269 -0.72451,1.00976 -0.35124,0.2715 -0.68295,0.46966 -0.76739,0.44855 -0.0174,0.41275 -0.63031,1.60982 -0.82941,2.14509 -0.30254,-0.35172 -1.64051,-0.0929 -1.62006,0.67851 -0.21038,1.02937 -0.74294,2.34475 -1.2547,2.8019 0.59372,0.1605 2.54993,-2.51735 2.81327,-3.21479 0.0151,0.0177 0.0526,5.6e-4 0.1204,-0.062 0.005,-0.039 0.003,-0.075 -0.006,-0.10748 1.01009,-0.44724 2.64128,-1.99874 1.99316,-1.99006 0.49716,-0.86143 2.307,-2.17257 3.11402,-2.14561 0.58566,-0.0648 2.26076,-1.56019 1.40405,-1.29501 0.0236,-0.74757 2.4235,-2.23041 2.30735,-2.53421 0.30356,-0.13221 1.05749,-0.56338 1.81333,-1.02836 -0.46626,0.48918 -1.04733,1.2163 -1.11053,1.32343 -0.007,-0.56303 -1.51055,3.05284 -1.82263,3.08612 -0.44004,0.0172 -0.49427,0.6695 -1.02112,0.91467 -0.11959,-0.16173 -1.02095,1.64805 -0.87437,1.13688 -0.77621,0.59876 -1.99791,1.52485 -1.31775,1.57303 -0.23363,0.033 1.82293,-1.27372 2.0991,-1.711 -0.11491,0.70092 4.2185,-2.94759 4.49895,-2.92024 0.7309,-0.65205 2.8167,-1.65036 2.59467,-2.32544 0.42364,-0.24046 3.35226,-2.10883 3.09335,-2.38125 0.21591,-0.209 2.99671,-4.04393 3.36879,-4.26279 -0.78979,-0.0756 3.23796,-2.58853 2.86598,-1.64383 -0.52652,-0.0777 -0.77772,0.72343 -0.68834,1.2082 -0.38276,-8.8e-4 -0.92613,0.37274 -1.24385,0.68626 0.0703,0.35041 0.12062,1.02069 -0.30954,1.13947 0.37824,-0.13627 0.31097,0.19099 0.11317,0.55811 0.66766,-0.61508 1.2185,-1.09414 1.3317,-1.13534 0.3022,-0.75973 3.96705,-2.52208 3.82509,-1.56786 0.38166,-0.6987 3.05673,-2.62502 3.22771,-3.07268 0.7159,-0.29868 4.02441,-3.04878 3.89796,-3.60805 0.0893,-0.82287 3.18232,-4.06061 3.2768,-3.47059 -0.48818,0.85595 4.55321,-4.11913 4.55321,-4.11913 1.12274,-1.12273 1.77828,-2.38991 2.05569,-3.7083 0.0152,0.0178 0.11885,0.13901 0.11885,0.13901 1.294,-1.294 2.12129,-2.95984 2.64067,-4.71702 0.90501,1.77435 1.43402,3.13107 1.43402,3.13107 0,0 0.75038,-0.44511 1.93735,-1.16944 0.17784,0.33304 0.33323,0.62437 0.45992,0.8723 -0.3289,3.38928 -1.51077,7.38341 -2.02778,10.44071 l 1.52497,1.52549 c 3.25203,-3.09137 11.22439,-11.06955 13.2147,-14.95723 0.659,-1.28722 1.23711,-2.71776 1.74149,-4.15427 8.83778,-5.51436 19.06156,-12.85625 21.68189,-18.69498 4.84415,-10.79401 1.75053,-24.26959 -0.66406,-26.68416 -1.50908,-1.50909 -7.33912,-3.28401 -14.13453,-3.21996 z m -48.76395,77.03509 c -0.0119,0.0299 -0.0207,0.0587 -0.0217,0.0853 0.0514,-0.072 0.0556,-0.0976 0.0217,-0.0853 z m -1.3317,1.13534 c -0.26253,0.24185 -0.53467,0.49721 -0.817,0.76687 0.01,0.003 0.0145,0.003 0.0258,0.006 0.10804,0.18661 0.54921,-0.324 0.79116,-0.77307 z m -0.817,0.76687 c -0.17937,-0.0502 -0.16704,-0.007 -0.1509,0.14521 0.0507,-0.0488 0.1001,-0.0967 0.1509,-0.14521 z m -0.1509,0.14521 c -1.0607,1.01956 -2.08553,2.07038 -2.07791,2.23708 0.37357,0.49833 2.64243,-1.41379 1.94614,-1.50069 0.16056,-0.35384 0.14706,-0.59231 0.13177,-0.73639 z m -19.13371,9.45834 c 0.001,-0.0303 0.002,-0.0601 -0.004,-0.0811 -0.0259,0.0496 -0.0218,0.0748 0.004,0.0811 z m 1.4919,-1.45831 c 0.74608,-0.64772 1.71633,-1.04701 1.41645,-1.41438 -6e-5,-3.2e-4 5e-5,-7.1e-4 0,-0.001 -0.41599,0.29845 -0.96629,0.87054 -1.41645,1.41542 z m 1.22989,-0.49816 c 0.14815,-0.1548 0.11185,-0.24604 -0.0527,-0.10077 0.009,0.0506 0.0288,0.0802 0.0527,0.10077 z m -13.14958,10.72338 c -0.32265,0.26315 -0.53092,0.40642 -0.49713,0.28577 -0.83723,0.45952 -1.98803,2.17787 -2.7745,2.28565 -0.18664,0.59744 2.21723,-1.39106 3.27163,-2.57142 z m 10.93267,-14.5185 c -0.008,-0.0103 -0.0203,-0.0169 -0.0393,-0.016 -0.002,0.0225 0.0131,0.0259 0.0393,0.016 z m 6.14071,-12.20028 c -0.21975,0.0171 -0.4347,0.068 -0.58085,0.28525 0.0249,-0.58222 -1.00379,1.17358 -0.85162,1.54926 0.42775,-0.50189 0.93645,-1.16612 1.43247,-1.83451 z m -1.43247,1.83451 c -0.41426,0.48605 -0.74985,0.81807 -0.91778,0.84697 0.56998,0.0919 0.36133,-0.51391 1.0387,-0.77721 -0.0634,0.005 -0.10135,-0.0214 -0.12092,-0.0698 z m -0.91778,0.84697 c -0.0265,-0.004 -0.0522,-0.008 -0.0822,-0.0155 0.0194,0.0196 0.0486,0.0213 0.0822,0.0155 z m 6.62234,-4.75836 c 0.005,0.0133 0.009,0.0268 0.0119,0.0434 -0.0312,0.013 -0.0324,-0.004 -0.0119,-0.0434 z m -0.41755,12.86536 c -0.0543,0.0628 -0.0856,0.092 -0.0651,0.0413 0.0218,-0.014 0.0435,-0.0274 0.0651,-0.0413 z m -20.54035,15.11743 c 0.0166,0.0156 0.0383,0.0185 0.062,0.0155 -0.0156,-0.009 -0.0361,-0.0143 -0.062,-0.0155 z"
           style="opacity:0.75;fill:#000000;fill-opacity:1;stroke:none;stroke-width:1.29631221;stroke-linecap:round;stroke-linejoin:round;stroke-miterlimit:4;stroke-dasharray:none;stroke-opacity:1;paint-order:normal;filter:url(#filter2819)"
           inkscape:connector-curvature="0" />
        <g
           id="g2797">
          <path
             inkscape:connector-curvature="0"
             id="path2701"
             transform="scale(0.26458333)"
             d="m 951.58984,475.8125 c -15.41006,0.14526 -32.13304,2.79246 -47.43164,9.6582 -22.0674,9.9035 -49.81851,48.54484 -70.66015,81.94727 -5.42939,1.90632 -10.83603,4.09325 -15.70117,6.58398 -14.6936,7.5224 -44.84538,37.65226 -56.5293,49.94336 l 5.76367,5.76563 c 11.55499,-1.95405 26.65117,-6.42287 39.46094,-7.66602 0.93726,0.47892 2.0396,1.06588 3.29883,1.73828 -2.7379,4.48665 -4.42188,7.32422 -4.42188,7.32422 0,0 5.12792,1.99758 11.83398,5.41797 -6.64078,1.96304 -12.9358,5.09011 -17.82617,9.98047 0,0 0.38432,0.32854 0.42969,0.36719 -4.79172,1.13621 -9.43415,3.63923 -13.62891,7.83398 0,0 -12.40413,10.14726 -12.33398,13.50586 0.26532,-3.72457 -15.42791,15.20718 -14.6875,16.86133 -2.11192,2.5262 -13.07172,12.41133 -13.78125,16.54492 0.0673,-2.57877 -15.86979,14.78498 -17.17773,17.65039 -0.0611,-0.83336 -11.44402,12.43391 -9.46875,13.30078 -0.89597,1.10838 -4.02318,5.57375 -7.33399,10.03516 1.55629,-0.121 3.17984,0.23454 3.30859,-2.05859 2.94796,-2.02126 3.81844,-3.32477 6.22657,-2.22852 -0.005,1.75529 2.59549,-1.31724 4.55469,-2.96484 -1.113,2.29439 -1.87654,4.40944 -2.04297,5.10351 -0.0915,0.0488 -11.5675,12.41299 -11.97852,10.84766 -1.10143,-1.29226 -6.47193,7.40762 -7.01172,11.07422 -1.57107,2.87898 -3.0125,4.98518 -3.73242,4.60742 -3.67805,0.79245 -11.5661,10.84009 -11.48242,10.60156 -0.0552,-2.56577 -6.66955,8.47955 -6.07227,7.19727 -2.86526,0.89658 5.13964,-0.7576 3.10742,2.02734 1.32012,-0.7782 11.35595,-12.52784 10.95313,-9.22461 1.34759,-0.8016 2.5099,-4.07179 0.58008,-2.10742 1.73329,-2.98828 8.1374,-5.20295 7.16406,-6.53516 1.0885,-1.23905 2.16303,-3.38651 2.42969,-4.10742 2.39533,-1.73294 6.16852,-5.06794 6.7207,-5.41601 -0.55952,0.41305 -8.25334,15.52345 -8.97852,13.9082 0.24033,-1.82164 -15.30279,14.76182 -16.95507,15.38672 0.851,1.06652 -13.03436,17.52469 -14.16993,20.36523 1.38282,-3.51042 -16.74524,12.57632 -16.13867,14.79883 1.70137,-1.93026 -7.22504,16.41068 -9.30859,16.69531 0.47342,0.27338 -0.32197,1.46752 -1.70313,3.01367 3.29304,-2.68576 9.95964,-8.91107 11.95508,-9.5039 0.67816,0.97859 4.99568,-9.11257 8.41211,-10.05469 -0.90882,-2.39422 11.35056,-12.55596 11.6582,-9.95508 -2.02426,2.65229 10.63911,-11.86725 9.54883,-11.19922 1.05246,-1.49568 5.52969,-3.39999 9.15625,-4.93164 -0.27033,0.6082 -0.41286,1.17366 -0.32617,1.64844 0.97027,-0.69613 1.74631,-1.01038 2.08594,-0.625 -0.25979,-0.58902 0.15127,-1.34657 0.93164,-2.17383 1.16653,-0.51924 1.95783,-0.92376 2.03516,-1.14648 -1.11518,3.26012 -4.81701,8.2222 -5.75782,7.41211 -0.54472,0.56918 -1.7482,1.3647 -3.83007,1.79492 -0.36298,1.12127 -1.9677,2.66584 -3.4961,3.85547 0.4593,-0.91448 1.46973,-2.30539 2.67774,-3.76758 -1.23264,1.07013 -2.30409,2.31568 -2.73829,3.81641 -1.32751,1.02614 -2.58122,1.7751 -2.90039,1.69531 -0.0659,1.56001 -2.38226,6.08434 -3.13476,8.10742 -1.14347,-1.32934 -6.20036,-0.35127 -6.12305,2.56445 -0.79517,3.89054 -2.80798,8.86204 -4.74219,10.58985 2.24399,0.60661 9.63754,-9.51439 10.63282,-12.15039 0.0571,0.0671 0.19869,0.002 0.45507,-0.23438 0.0192,-0.14727 0.011,-0.28342 -0.0215,-0.40625 3.81767,-1.69034 9.98282,-7.55428 7.5332,-7.52148 1.87903,-3.2558 8.71938,-8.21127 11.76953,-8.10938 2.21352,-0.24491 8.5446,-5.89678 5.30664,-4.89453 0.0892,-2.82546 9.1597,-8.4299 8.72071,-9.57812 1.1473,-0.4997 3.99681,-2.12931 6.85351,-3.88672 -1.76222,1.84886 -3.9584,4.59706 -4.19726,5.00195 -0.0263,-2.12798 -5.70916,11.53829 -6.88867,11.66406 -1.66315,0.065 -1.8681,2.53041 -3.85938,3.45703 -0.45199,-0.61126 -3.85869,6.22886 -3.30469,4.29688 -2.9337,2.26303 -7.55115,5.76321 -4.98046,5.94531 -0.88302,0.12473 6.8898,-4.81408 7.93359,-6.4668 -0.43431,2.64915 15.94394,-11.14048 17.00391,-11.0371 2.76245,-2.46444 10.64581,-6.2376 9.80664,-8.78907 1.60114,-0.90883 12.66995,-7.97039 11.6914,-9 0.81601,-0.78994 11.32614,-15.28414 12.73242,-16.11133 -2.98503,-0.28573 12.23797,-9.78341 10.83204,-6.21289 -1.98997,-0.29383 -2.93938,2.73419 -2.60157,4.56641 -1.44665,-0.003 -3.50035,1.40876 -4.70117,2.59375 0.2657,1.32438 0.45588,3.85771 -1.16992,4.30664 1.42957,-0.51502 1.17533,0.72184 0.42773,2.10938 2.52344,-2.3247 4.60534,-4.13532 5.03321,-4.29102 1.14215,-2.87142 14.99357,-9.5323 14.45703,-5.92578 1.44247,-2.64075 11.55299,-9.92132 12.19922,-11.61328 2.70575,-1.12888 15.21034,-11.52296 14.73242,-13.63672 0.33751,-3.11006 12.02767,-15.34719 12.38476,-13.11719 -1.84509,3.23509 17.20899,-15.56836 17.20899,-15.56836 4.24341,-4.24341 6.72106,-9.03276 7.76953,-14.01562 0.0574,0.0674 0.44922,0.52539 0.44922,0.52539 4.89071,-4.89072 8.01746,-11.18681 9.98047,-17.82813 3.4205,6.70623 5.41992,11.83399 5.41992,11.83399 0,0 2.83609,-1.68233 7.32226,-4.41993 0.67214,1.25873 1.25946,2.35982 1.73829,3.29688 -1.24308,12.80986 -5.70999,27.90578 -7.66407,39.46094 l 5.76368,5.76562 c 12.29113,-11.68392 42.42291,-41.83765 49.94531,-56.53125 2.49071,-4.86509 4.67572,-10.27184 6.58203,-15.70117 33.40264,-20.8417 72.04367,-48.59057 81.9473,-70.6582 18.3086,-40.79626 6.6162,-91.72758 -2.5098,-100.85352 -5.70366,-5.70366 -27.73844,-12.41202 -53.42188,-12.16992 z M 767.28516,766.96875 c -0.045,0.11304 -0.0781,0.22183 -0.082,0.32227 0.19423,-0.27206 0.21008,-0.36887 0.082,-0.32227 z m -5.03321,4.29102 c -0.99223,0.91408 -2.02079,1.87925 -3.08789,2.89843 0.0379,0.0106 0.055,0.0107 0.0977,0.0234 0.40835,0.70527 2.07575,-1.22459 2.99023,-2.92187 z m -3.08789,2.89843 c -0.67794,-0.18968 -0.63133,-0.0263 -0.57031,0.54883 0.19172,-0.18429 0.37833,-0.36546 0.57031,-0.54883 z m -0.57031,0.54883 c -4.00897,3.85346 -7.88231,7.82503 -7.85352,8.45508 1.41192,1.88345 9.98712,-5.34343 7.35547,-5.67188 0.60685,-1.33735 0.55582,-2.23867 0.49805,-2.7832 z m -72.31641,35.74805 c 0.005,-0.1144 0.008,-0.2271 -0.0137,-0.30664 -0.098,0.18736 -0.0825,0.28258 0.0137,0.30664 z m 5.63868,-5.51172 c 2.81983,-2.44808 6.48693,-3.95722 5.35351,-5.3457 -2.2e-4,-10e-4 2.2e-4,-0.003 0,-0.004 -1.57222,1.128 -3.65212,3.29021 -5.35351,5.34961 z m 4.64843,-1.88281 c 0.55992,-0.58506 0.42272,-0.92992 -0.19922,-0.38086 0.0345,0.19135 0.10885,0.30304 0.19922,0.38086 z m -49.69922,40.52929 c -1.21945,0.99458 -2.00662,1.53609 -1.8789,1.08008 -3.16434,1.73677 -7.51381,8.23132 -10.48633,8.63867 -0.7054,2.25804 8.38009,-5.25753 12.36523,-9.71875 z m 41.32032,-54.87304 c -0.031,-0.0389 -0.0769,-0.064 -0.14844,-0.0606 -0.007,0.0849 0.0493,0.098 0.14844,0.0606 z m 23.20898,-46.11133 c -0.83055,0.0646 -1.64293,0.25719 -2.19531,1.07812 0.0942,-2.20051 -3.79388,4.43557 -3.21875,5.85547 1.61669,-1.89691 3.53935,-4.40737 5.41406,-6.93359 z m -5.41406,6.93359 c -1.56568,1.83706 -2.83407,3.09194 -3.46875,3.20117 2.15425,0.34733 1.36565,-1.94237 3.92578,-2.9375 -0.23975,0.02 -0.38306,-0.0811 -0.45703,-0.26367 z m -3.46875,3.20117 c -0.10003,-0.0161 -0.19716,-0.0307 -0.31055,-0.0586 0.0734,0.0741 0.18364,0.0804 0.31055,0.0586 z m 25.0293,-17.98437 c 0.0173,0.0503 0.0337,0.10146 0.0449,0.16406 -0.11811,0.0491 -0.12244,-0.0158 -0.0449,-0.16406 z m -1.57813,48.625 c -0.20515,0.23726 -0.32348,0.34774 -0.24609,0.15625 0.0826,-0.053 0.16434,-0.10358 0.24609,-0.15625 z m -77.63281,57.13672 c 0.0626,0.0591 0.14479,0.07 0.23437,0.0586 -0.059,-0.0333 -0.13644,-0.0539 -0.23437,-0.0586 z"
             style="opacity:1;fill:#333333;fill-opacity:1;stroke:#333333;stroke-width:11.33858299;stroke-linecap:round;stroke-linejoin:round;stroke-miterlimit:4;stroke-dasharray:none;stroke-opacity:1;paint-order:normal" />
          <g
             transform="rotate(45,160.66337,271.27646)"
             id="g2528">
            <path
               inkscape:connector-curvature="0"
               id="rect1189"
               d="m 124.57888,168.96025 c 0,0 -0.42239,4.21876 0.21909,4.83399 -0.64717,-0.74648 -0.0413,5.73196 0.4067,5.90291 0.0775,0.86774 -0.12345,4.76725 0.51715,5.67334 -0.46988,-0.49503 -0.20288,5.73541 0.0885,6.5162 -0.17076,-0.14737 0.1994,4.65939 0.74919,4.24445 -0.29881,-0.96475 1.27624,6.87295 0.63777,6.87008 0.59581,-0.36034 -0.0523,-0.63527 0.25409,-1.3313 -0.36082,0.42638 -1.07277,-2.14578 -0.62802,-1.66125 -0.14439,-0.73838 1.06417,-0.92175 0.44314,-1.61667 0.17338,-0.92969 0.0922,-1.33645 0.74782,-1.58189 0.5048,0.50695 0.0199,-2.29186 0.6094,-1.88111 -0.10334,0.25019 -0.2029,-2.17715 -0.51876,-2.07797 -0.59377,0.98295 0.54287,3.50332 0.77945,3.88916 -0.008,0.0262 0.15783,4.48664 -0.21192,4.27068 -0.44783,-0.0357 0.17503,2.59662 0.76002,3.38358 0.2447,0.83256 0.36926,1.49644 0.1639,1.56045 -0.53987,0.83638 -0.13582,4.19203 -0.16479,4.13175 -0.49035,-0.4697 0.33856,2.83421 0.21041,2.48257 -0.36832,0.70379 0.81988,-1.10353 0.96071,-0.2023 0.10138,-0.39257 -0.21918,-4.4684 0.32345,-3.77504 0.10215,-0.40209 -0.29215,-1.2316 -0.28569,-0.50304 -0.2348,-0.88335 0.54878,-2.49556 0.11744,-2.5627 -0.0417,-0.64468 -0.48141,-1.73549 -0.32502,-1.13803 0.13098,-0.75708 0.21597,-2.18187 0.25542,-2.35588 -0.0274,0.18196 1.36016,4.44842 0.9223,4.2819 -0.31357,-0.40895 -0.0761,6.37231 -0.33239,6.06756 0.36218,-0.39907 0.86725,5.67346 1.19786,6.44448 -0.39805,-0.91548 -0.77987,5.48557 -0.25058,5.78789 -0.0447,-0.70915 1.87717,4.88297 1.32647,4.89894 0.62427,-0.56674 0.20935,5.75092 -0.19442,4.98026 0.47991,-0.63233 0.0786,-2.66065 0.34569,-3.57759 0.22727,0.40411 0.24854,-3.90483 0.60813,-4.56838 0.30996,0.0562 -0.77032,-2.63986 -0.30741,-3.4553 -0.61796,-0.27789 -0.22513,-4.47245 0.31903,-4.04341 0.11749,0.87493 -0.23007,-4.2105 -0.30907,-3.88154 -0.13911,-0.79975 1.35423,-3.72416 1.24476,-3.95006 0.43984,0.8972 0.6832,2.76492 0.20106,2.43004 0.0269,-0.43221 0.35444,0.13358 -0.27219,1.08666 0.30435,0.59572 -0.0834,2.63712 -0.22024,2.2004 0.38882,0.22388 1.14538,3.01872 1.17597,2.26046 -0.38351,-0.49817 -1.49718,0.91105 -0.85166,1.52322 0.5791,0.87664 1.13287,2.18348 1.09426,2.8686 0.57661,-0.3312 -0.0673,-4.14171 -0.35451,-4.37947 0.42758,-0.98759 0.49824,-3.37788 0.0339,-2.90093 -0.25758,-0.96067 0.0951,-3.1675 0.68481,-3.71908 0.3683,-0.45996 0.49527,-2.70187 0.077,-1.90858 -0.5119,-0.54532 0.13671,-3.29053 -0.16024,-3.42322 0.24353,-0.61934 0.92036,-3.37482 0.97485,-4.18698 -0.62263,-0.48323 -0.1219,1.939 -0.28319,1.48043 -0.31592,-0.2765 0.003,2.60638 0.0217,2.4252 -0.43276,-0.45276 1.08398,3.2179 0.88547,3.46381 -0.29897,0.32335 0.12408,0.82322 -0.0751,1.36912 -0.19893,-0.0298 0.44316,1.88729 0.18536,1.42219 -0.12548,0.97225 -0.33406,2.49092 0.18095,2.04404 -0.14189,0.18852 0.38829,-2.18965 0.27437,-2.69414 0.41437,0.57688 0.89831,-5.06717 1.11596,-5.24614 0.0561,-0.98378 0.83504,-3.18618 0.1798,-3.48581 -0.12289,0.689 0.97051,-3.94666 0.50209,-3.86654 0.12747,0.38757 -0.736,-4.94683 -0.62,-5.39422 -0.61195,0.50498 0.45925,-4.11969 0.86422,-3.18865 -0.64346,0.47789 0.56397,1.92929 0.89351,1.29311 -0.64927,-0.38831 -0.91589,0.7426 -0.92034,1.41263 0.2975,0.19806 0.80725,0.63635 0.58707,1.02451 0.3804,-0.80884 0.8403,1.5214 0.46163,1.42044 -0.37199,0.20056 0.11172,0.068 0.4008,0.83742 0.55379,-0.43092 0.30159,2.52541 -0.31494,2.43719 -0.27021,-0.24654 -0.0468,-6.99455 0.11095,-6.04938 -0.47682,-0.51531 0.95394,-4.69458 1.5509,-3.88895 -0.25832,-0.88024 0.48614,-5.07189 -0.0339,-4.44421 0.2682,0.95726 0.92091,-4.95752 0.34903,-5.31848 -0.51873,-0.64498 -0.62109,-5.12147 -0.13707,-4.77107 0.26005,0.95044 0.30692,-6.13221 0.30692,-6.13221 0,-10.67677 -19.54902,-11.046 -19.54902,-0.0581 z"
               style="opacity:0.8;fill:#ff0000;fill-opacity:1;stroke:none;stroke-width:1.29631221;stroke-linecap:round;stroke-linejoin:round;stroke-miterlimit:4;stroke-dasharray:none;stroke-opacity:1;paint-order:normal"
               sodipodi:nodetypes="cccccccccccccccccccccccccccccccccccccccccccccccccccccccccccccccccccccccccc" />
            <path
               sodipodi:nodetypes="cccccccccccccccccccccccccccccccccccccccccccccccccccccccccccccccccccccccccc"
               style="opacity:0.8;fill:#ffff00;fill-opacity:1;stroke:none;stroke-width:0.94814503;stroke-linecap:round;stroke-linejoin:round;stroke-miterlimit:4;stroke-dasharray:none;stroke-opacity:1;paint-order:normal"
               d="m 141.2034,166.81105 c -0.29439,0.16624 -0.16858,3.79224 -0.14982,4.53113 0.95098,-0.73796 0.0563,3.07585 -0.12762,3.14618 0.001,0.45165 0.93825,3.31324 0.11042,4.22913 0.15349,-1.03792 0.24078,4.44834 -0.0285,5.52523 0.44719,-0.4759 -0.59943,4.12352 -0.43109,3.43893 0.28901,-0.37897 -2.06295,4.75348 -1.15987,4.64615 -0.0593,0.24922 0.53184,0.12511 0.0244,-0.78805 -0.11688,0.95399 0.98366,-1.55902 0.55556,-1.5213 0.27053,-0.37178 -1.24416,-1.10032 -0.80159,-1.32927 -0.61954,0.11451 0.19397,-1.08194 -0.49961,-1.08309 -0.26756,0.88635 0.18852,-0.4132 -0.30129,-0.4329 0.43559,-0.18108 1.24157,-2.84738 1.01159,-3.05858 0.60943,1.48383 -1.15421,4.04823 -0.82305,4.15898 -0.58411,0.005 0.79792,3.16428 0.56405,2.97309 0.41268,0.21836 -0.54395,2.29961 -1.23934,2.09462 -0.0682,0.4741 0.0802,2.16079 0.26433,1.64418 -0.10933,1.21318 -1.12408,3.01335 -0.5523,2.93331 0.10688,0.39724 0.16267,0.72732 0.69253,0.59896 -0.0843,0.7017 -1.91184,0.37692 -1.47256,0.68931 -0.50202,-0.10467 0.30537,-3.22725 -0.18412,-2.75673 0.37221,-0.20411 0.10054,-0.53852 0.0286,-0.35057 -0.0442,-0.0857 -0.48948,-1.31532 0.08,-2.12045 -0.32678,-0.80255 0.85589,-0.13924 1.03601,-0.42084 -0.0896,-0.22747 -0.20569,-0.86392 -0.17094,-1.20879 0.0659,0.64507 -1.08004,3.666 -0.72275,2.81028 -0.22137,-0.66279 -0.43036,4.02415 -0.43067,4.23939 -0.68849,-0.93324 0.1185,4.22557 -0.62089,4.36005 0.79852,-1.27243 0.92164,3.93932 -0.0611,4.38062 0.20663,-0.36197 -1.26023,3.74639 -0.46861,4.05345 -0.59099,-0.0373 -0.28283,3.85247 0.0662,3.94358 -0.93984,-1.15162 0.38003,-3.36285 -0.33912,-3.43558 -0.66875,-0.45986 -0.36106,-3.18101 -0.73001,-3.02322 -0.43979,0.3562 0.28099,-2.35119 0.36128,-2.88377 0.66627,-0.47457 0.0598,-1.92131 0.20979,-2.20878 -0.0594,0.76108 -0.10155,-3.62845 -0.48862,-3.87171 0.25372,-0.1289 -0.79796,-2.34476 -0.48275,-2.54852 -0.17411,1.22162 -0.83026,1.05222 0.004,1.28789 -0.54114,0.29953 -0.72132,1.24266 -0.64859,1.36567 -0.17416,0.74428 0.68283,1.77432 0.64977,0.94444 0.30971,0.0999 -0.76343,2.68848 -1.19326,2.68226 0.15567,0.34876 2.0448,0.8818 1.1751,0.79757 -0.96159,1.1554 -0.97954,1.05065 -0.61533,2.3508 0.12577,0.39582 -0.0651,-3.57014 0.13345,-3.68073 -0.88441,-0.30378 -0.57142,-1.79539 -0.11662,-1.76186 0.21253,-1.40628 -0.1463,-3.2681 -0.19345,-3.04182 -0.46473,0.21931 -0.3257,-1.4906 0.0442,-0.53748 0.56936,0.0462 -0.48945,-2.84033 -0.71359,-3.63429 -0.0946,-1.14184 0.32711,-0.91908 0.18541,-1.95338 0.25039,-1.00751 -1.05676,0.93232 -0.98104,0.53685 -0.19619,-0.41054 0.2647,1.13351 0.14842,0.8516 0.89122,-0.0447 0.11923,3.6336 -0.31597,3.40858 -0.0798,0.78545 0.56205,-0.0409 0.31655,0.78051 0.60647,0.1614 -0.39379,0.9837 -0.58119,1.08791 0.64804,1.40535 -0.17239,1.80598 -0.0117,1.93328 0.11796,0.9272 1.00452,-2.20473 0.5329,-2.96255 -0.23276,-0.18888 -1.80802,-2.09702 -1.5537,-2.65563 0.42523,-1.0879 0.002,-3.63018 0.40282,-3.61321 0.28762,-0.29211 -0.58218,-2.81162 -0.39164,-2.83218 0.19199,0.28014 0.47549,-3.65952 0.64937,-3.81136 0.40581,-0.42595 -1.31022,-2.97862 -1.01388,-1.84884 0.58174,0.1692 -0.62482,1.04599 -0.83624,0.71281 0.26659,-0.32551 0.65833,1.38198 0.49213,1.54933 0.28558,-0.004 0.21483,0.68505 0.13799,0.87995 0.29488,-0.86387 -1.16708,-0.32845 -0.93858,-0.0309 -0.24917,0.0501 0.47999,0.41893 -0.14499,1.74868 -0.507,0.28335 0.47312,2.00522 0.54374,1.85316 0.30878,-0.52988 -0.31224,-6.46269 -0.87807,-5.65328 0.9309,-0.3955 -0.0173,-2.12959 -0.50474,-1.63446 0.0753,0.0286 -1.16435,-3.56408 -0.50306,-3.88733 0.33567,0.31788 -0.22585,-3.17727 0.59301,-3.26483 -0.17408,-0.79036 -0.009,-4.00526 -0.005,-3.39819 -0.52031,0.43449 -1.19111,-5.12705 -0.92099,-4.94988 0.2725,-7.85068 14.48474,-8.63115 14.62837,-0.57708 -0.21173,-0.45026 -0.33288,-0.30356 0.24405,0.0682"
               id="path2165"
               inkscape:connector-curvature="0" />
            <path
               sodipodi:nodetypes="cczcc"
               inkscape:connector-curvature="0"
               id="rect88"
               d="m 134.32761,151.79901 c 0,0 8.81384,6.0872 8.81384,13.15751 0,0 -6.57448,-0.52917 -8.81383,-0.52917 -2.23935,0 -8.81383,0.52917 -8.81383,0.52917 0,-7.07031 8.81382,-13.15751 8.81382,-13.15751 z"
               style="opacity:1;fill:#4d4d4d;fill-opacity:1;stroke:none;stroke-width:1.40839219;stroke-linecap:round;stroke-linejoin:round;stroke-miterlimit:4;stroke-dasharray:none;stroke-opacity:1;paint-order:normal" />
            <path
               sodipodi:nodetypes="cssccsssc"
               inkscape:connector-curvature="0"
               id="path265"
               d="m 133.40891,152.28786 c -1.47022,1.26607 -4.15882,4.14941 -6.01328,7.48852 -0.36848,0.66348 -0.48857,1.40942 -0.83723,2.03834 -0.46883,0.84569 -0.37437,1.89083 -0.37437,2.87703 0,0 1.94479,-0.1655 4.00906,-0.31264 0.0355,-0.74104 -0.0156,-1.496 0.19785,-2.18142 0.19216,-0.6171 0.028,-1.19929 0.29903,-1.80983 0.27389,-0.61705 0.54731,-1.2201 0.72395,-1.83362 0.84724,-2.94263 1.31148,-4.93464 1.99499,-6.26638 z"
               style="opacity:0.25;fill:#000000;fill-opacity:1;stroke:none;stroke-width:1.3537991;stroke-linecap:round;stroke-linejoin:round;stroke-miterlimit:4;stroke-dasharray:none;stroke-opacity:1;paint-order:normal" />
            <path
               sodipodi:nodetypes="cssccssc"
               inkscape:connector-curvature="0"
               id="path255"
               d="m 135.25944,152.25478 c 0.68606,1.43697 2.10056,3.57049 2.29345,6.2978 0.042,0.59386 0.40318,1.23173 0.41483,1.84345 0.0234,1.23039 0.40071,2.48239 0.46517,3.79549 1.25139,0.12097 2.30322,0.23565 2.30322,0.23565 0,-1.08819 0.0542,-2.22784 -0.40811,-3.17523 -0.39824,-0.81613 -0.6757,-1.68933 -0.86871,-2.54141 -0.69308,-3.05974 -3.09393,-5.21319 -4.19985,-6.45575 z"
               style="opacity:0.75;fill:#ffffff;fill-opacity:1;stroke:none;stroke-width:1.20092595;stroke-linecap:round;stroke-linejoin:round;stroke-miterlimit:4;stroke-dasharray:none;stroke-opacity:1;paint-order:normal" />
            <path
               style="opacity:1;fill:#ff5555;fill-opacity:1;stroke:none;stroke-width:0.82926571;stroke-linecap:round;stroke-linejoin:round;stroke-miterlimit:4;stroke-dasharray:none;stroke-opacity:1;paint-order:normal"
               d="m 118.61385,116.81281 c 3.41865,-11.05786 12.93906,-18.398901 15.71375,-18.398901 2.77472,0 12.29513,7.341041 15.71378,18.398901 3.41865,11.05787 -5.14004,44.14149 -5.14004,44.14149 0,0 -5.88741,-2.59706 -10.57374,-2.59706 -4.6863,0 -10.57371,2.59706 -10.57371,2.59706 0,0 -8.55869,-33.08362 -5.14004,-44.14149 z"
               id="path2220"
               inkscape:connector-curvature="0"
               sodipodi:nodetypes="zzzczcz" />
            <path
               sodipodi:nodetypes="zzzczcz"
               inkscape:connector-curvature="0"
               id="path2222"
               d="m 118.35861,115.22533 c 3.47418,-11.05786 13.14923,-18.398919 15.96899,-18.398919 2.81979,0 12.49484,7.341059 15.96902,18.398919 3.47418,11.05787 -5.22353,44.14149 -5.22353,44.14149 0,0 -5.98304,-2.0679 -10.74549,-2.0679 -4.76242,0 -10.74546,2.0679 -10.74546,2.0679 0,0 -8.69771,-33.08362 -5.22353,-44.14149 z"
               style="opacity:0.25;fill:#000000;fill-opacity:1;stroke:none;stroke-width:0.83597356;stroke-linecap:round;stroke-linejoin:round;stroke-miterlimit:4;stroke-dasharray:none;stroke-opacity:1;paint-order:normal" />
            <path
               sodipodi:nodetypes="zzzczcz"
               inkscape:connector-curvature="0"
               id="rect30"
               d="m 114.98939,115.22533 c 4.20718,-11.05786 15.92352,-18.398919 19.33821,-18.398919 3.41471,0 15.13106,7.341059 19.33824,18.398919 4.20717,11.05787 -6.32562,44.14149 -6.32562,44.14149 0,0 -7.24537,-2.59706 -13.01262,-2.59706 -5.76722,0 -13.01259,2.59706 -13.01259,2.59706 0,0 -10.53279,-33.08362 -6.32562,-44.14149 z"
               style="opacity:1;fill:#9d93ac;fill-opacity:1;stroke:none;stroke-width:0.91994494;stroke-linecap:round;stroke-linejoin:round;stroke-miterlimit:4;stroke-dasharray:none;stroke-opacity:1;paint-order:normal" />
            <path
               inkscape:connector-curvature="0"
               id="path245"
               transform="scale(0.26458333)"
               d="m 507.69531,365.95898 c -6.00077,0 -18.78721,6.00326 -32.34765,16.62305 h 64.69336 c -13.56047,-10.61979 -26.3449,-16.62305 -32.34571,-16.62305 z"
               style="opacity:1;fill:#005544;fill-opacity:1;stroke:none;stroke-width:3.47695732;stroke-linecap:round;stroke-linejoin:round;stroke-miterlimit:4;stroke-dasharray:none;stroke-opacity:1;paint-order:normal" />
            <path
               sodipodi:nodetypes="ssssssccsccs"
               inkscape:connector-curvature="0"
               id="path250"
               transform="scale(0.26458333)"
               d="m 507.69531,365.95898 c 6.51279,0 25.65425,18.50842 38.20299,47.52835 3.37351,7.8015 4.96452,12.7611 5.54115,20.07908 0.655,8.3126 2.32373,23.20717 -1.21975,36.78837 -3.79245,14.53545 -2.46767,23.18493 -3.87375,30.23883 -4.71965,23.6771 1.21574,49.3985 -4.52001,66.82702 -4.73999,14.4028 -2.72608,21.68291 -3.44511,25.37039 4.5539,1.65468 7.50391,2.9746 7.50391,2.9746 0,0 18.24982,-77.42713 20.49046,-114.66234 1.15423,-19.18112 1.46155,-36.3892 -1.92601,-47.53687 C 552.1017,392.93388 517.717,365.95898 507.69528,365.95898 Z"
               style="opacity:0.75;fill:#ffffff;fill-opacity:1;stroke:none;stroke-width:3.02104139;stroke-linecap:round;stroke-linejoin:round;stroke-miterlimit:4;stroke-dasharray:none;stroke-opacity:1;paint-order:normal" />
            <path
               sodipodi:nodetypes="cccsssccssssc"
               inkscape:connector-curvature="0"
               id="path260"
               transform="scale(0.26458333)"
               d="m 507.69531,365.95898 c -2.25753,1.21719 1.94797,0.81192 0,0 z m 0,0 c -8.44094,0 -31.24785,13.59732 -49.26694,36.09264 -7.72058,9.6385 -14.5622,20.91052 -19.01821,33.44643 -5.70876,16.06019 -3.73177,44.4132 0.86707,73.23983 7.36876,46.18909 21.46886,91.59415 21.46886,91.59415 0,0 7.60611,-2.90954 17.80274,-5.56055 -1.42005,-8.50414 1.19116,-24.24323 -3.00399,-44.77431 -2.9451,-14.41332 -0.34522,-26.6037 -4.84557,-42.19516 -7.93818,-27.50184 -9.31791,-57.99349 -2.42388,-72.30396 5.19864,-10.79122 8.13993,-21.54892 10.3736,-31.54734 5.66323,-25.34992 22.91074,-37.99173 28.04632,-37.99173 z"
               style="opacity:0.25;fill:#000000;fill-opacity:1;stroke:none;stroke-width:3.36074281;stroke-linecap:round;stroke-linejoin:round;stroke-miterlimit:4;stroke-dasharray:none;stroke-opacity:1;paint-order:normal" />
            <circle
               transform="scale(-1,1)"
               style="opacity:1;fill:#333333;fill-opacity:1;stroke:none;stroke-width:1.32291663;stroke-linecap:round;stroke-linejoin:round;stroke-miterlimit:4;stroke-dasharray:none;stroke-opacity:1;paint-order:normal"
               id="circle1111"
               cx="-133.99574"
               cy="120.46836"
               r="6.9490075" />
            <circle
               transform="scale(-1,1)"
               r="6.9490075"
               cy="120.46836"
               cx="-134.26033"
               id="path184"
               style="opacity:1;fill:#ff5555;fill-opacity:1;stroke:none;stroke-width:1.32291663;stroke-linecap:round;stroke-linejoin:round;stroke-miterlimit:4;stroke-dasharray:none;stroke-opacity:1;paint-order:normal" />
            <circle
               transform="scale(-1,1)"
               cy="120.46836"
               cx="-134.52493"
               id="circle1113"
               style="opacity:1;fill:#000000;fill-opacity:1;stroke:none;stroke-width:1.01762819;stroke-linecap:round;stroke-linejoin:round;stroke-miterlimit:4;stroke-dasharray:none;stroke-opacity:1;paint-order:normal"
               r="5.3453903" />
            <circle
               transform="scale(-1,1)"
               r="5.3453903"
               style="opacity:1;fill:#e6e6e6;fill-opacity:1;stroke:none;stroke-width:1.01762819;stroke-linecap:round;stroke-linejoin:round;stroke-miterlimit:4;stroke-dasharray:none;stroke-opacity:1;paint-order:normal"
               id="circle195"
               cx="-134.26033"
               cy="120.46836" />
            <path
               sodipodi:nodetypes="scscs"
               inkscape:connector-curvature="0"
               id="circle1115"
               d="m 135.24883,120.46836 c -1.78176,3.74874 1.45439,3.25184 -0.9885,6.949 3.83783,0 6.94901,-3.11117 6.94901,-6.949 0,-3.83783 -3.11117,-6.94901 -6.94901,-6.94901 2.53197,4.49895 2.63598,3.48278 0.9885,6.94901 z"
               style="opacity:0.7;fill:#ffffff;fill-opacity:1;stroke:none;stroke-width:1.32291663;stroke-linecap:round;stroke-linejoin:round;stroke-miterlimit:4;stroke-dasharray:none;stroke-opacity:1;paint-order:normal" />
            <path
               inkscape:connector-curvature="0"
               id="rect51"
               d="m 146.5757,135.27907 c -0.7513,6.59533 -1.90188,13.9 -3.02307,21.1522 3.28609,1.94372 6.22767,7.83979 8.78241,11.43444 h 2.15697 c 0.1136,-4.48546 0.10969,-15.76387 -1.23196,-19.92023 -1.90683,-5.90732 -6.68435,-12.66641 -6.68435,-12.66641 z"
               style="opacity:1;fill:#ff5555;fill-opacity:1;stroke:none;stroke-width:0.7848233;stroke-linecap:round;stroke-linejoin:round;stroke-miterlimit:4;stroke-dasharray:none;stroke-opacity:1;paint-order:normal" />
            <path
               sodipodi:nodetypes="cccccc"
               inkscape:connector-curvature="0"
               id="path1130"
               d="m 148.10025,137.59263 c 1.53397,2.59426 3.06882,5.99265 4.09226,9.16327 1.41982,4.39853 0.26058,16.26953 0.14253,21.10981 l 2.15707,1e-5 c 0.1136,-4.48546 0.10969,-15.76387 -1.23197,-19.92023 -1.21676,-3.76952 -3.59254,-7.8672 -5.15989,-10.35286 z"
               style="opacity:0.25;fill:#000000;fill-opacity:1;stroke:none;stroke-width:0.7848233;stroke-linecap:round;stroke-linejoin:round;stroke-miterlimit:4;stroke-dasharray:none;stroke-opacity:1;paint-order:normal" />
            <path
               style="opacity:1;fill:#ff5555;fill-opacity:1;stroke:none;stroke-width:0.7848233;stroke-linecap:round;stroke-linejoin:round;stroke-miterlimit:4;stroke-dasharray:none;stroke-opacity:1;paint-order:normal"
               d="m 122.07953,135.27907 c 0.7513,6.59533 1.90188,13.9 3.02307,21.1522 -3.28609,1.94372 -6.22767,7.83979 -8.78241,11.43444 h -2.15697 c -0.1136,-4.48546 -0.10969,-15.76387 1.23196,-19.92023 1.90683,-5.90732 6.68435,-12.66641 6.68435,-12.66641 z"
               id="path1148"
               inkscape:connector-curvature="0" />
            <path
               sodipodi:nodetypes="cscccc"
               style="opacity:0.5;fill:#ffffff;fill-opacity:1;stroke:none;stroke-width:0.7848233;stroke-linecap:round;stroke-linejoin:round;stroke-miterlimit:4;stroke-dasharray:none;stroke-opacity:1;paint-order:normal"
               d="m 120.55498,137.59263 c -1.53397,2.59426 -3.06882,5.99265 -4.09227,9.16327 -1.41981,4.39853 -0.26058,16.26953 -0.14252,21.10981 l -2.15707,1e-5 c -0.1136,-4.48546 -0.10969,-15.76387 1.23196,-19.92023 1.21677,-3.76952 3.59255,-7.8672 5.1599,-10.35286 z"
               id="path1150"
               inkscape:connector-curvature="0" />
            <path
               inkscape:connector-curvature="0"
               id="path2390"
               d="m 122.07953,135.27907 c 0.44971,3.9478 -0.69139,5.51099 -1.08723,7.79507 -0.15105,0.8716 -0.32447,2.14089 -0.70684,3.12609 -0.39651,1.02164 -0.23297,3.06347 -0.57317,4.42242 -0.28172,1.12532 0.29355,2.07162 -0.38487,4.40435 -0.4499,1.54696 -0.9997,2.70983 -1.10311,3.36735 -0.18794,1.19496 0.10387,2.32968 -0.0242,3.4461 -0.29005,2.52927 -0.98822,4.77054 -1.87996,6.02526 h -2.15697 c -0.1136,-4.48546 -0.10969,-15.76387 1.23196,-19.92023 1.90683,-5.90732 6.68435,-12.66641 6.68435,-12.66641 z"
               style="opacity:0.1;fill:#ffffff;fill-opacity:1;stroke:none;stroke-width:0.7848233;stroke-linecap:round;stroke-linejoin:round;stroke-miterlimit:4;stroke-dasharray:none;stroke-opacity:1;paint-order:normal"
               sodipodi:nodetypes="csssssscccc" />
            <path
               style="opacity:0.1;fill:#000000;fill-opacity:1;stroke:none;stroke-width:0.7848233;stroke-linecap:round;stroke-linejoin:round;stroke-miterlimit:4;stroke-dasharray:none;stroke-opacity:1;paint-order:normal"
               d="m 146.5757,135.27907 c -0.43705,3.83666 0.63132,5.16195 0.9392,7.36289 0.089,0.63641 -0.13268,2.27362 0.26231,3.33116 0.37274,0.99796 0.59466,2.09673 1.21935,3.49785 0.58252,1.30652 0.4422,2.54582 0.85069,4.89572 0.10879,0.62585 -0.0883,1.34534 -0.0287,1.97008 0.13844,1.4526 0.98601,2.90076 0.83787,4.33766 -0.30982,3.00513 0.65836,5.75568 1.67865,7.19128 h 2.15697 c 0.1136,-4.48546 0.10969,-15.76387 -1.23196,-19.92023 -1.90683,-5.90732 -6.68435,-12.66641 -6.68435,-12.66641 z"
               id="path2392"
               inkscape:connector-curvature="0"
               sodipodi:nodetypes="csssssscccc" />
          </g>
        </g>
      </g>
    </g>
  </g>
</svg>
